<svg xmlns="http://www.w3.org/2000/svg" viewBox="0 0 728.44 173.64"><defs><style>.cls-1{fill:#f7f5f8;}.cls-2{fill:#f39b51;}</style></defs><title>Asset 1mpower</title><g id="Layer_2" data-name="Layer 2"><g id="Layer_1-2" data-name="Layer 1"><path class="cls-1" d="M96.55,0a1.44,1.44,0,0,1,1.26,1c.73,2.24,1.53,4.45,2.3,6.67s1.55,4.45,2.31,6.68a1.48,1.48,0,0,0,1.45,1.09,49,49,0,0,1,5.92.69c.77.17,1,0,1.29-.82.63-1.81,1.22-3.62,1.82-5.44.2-.62.41-1.24.66-2,3.46.63,6.87,1.37,10.31,2.25-.59,3.44-1.43,6.69-2.26,10a63.56,63.56,0,0,0-26.17.21,96.35,96.35,0,0,0-21.51,7.21,7.35,7.35,0,0,0-.91.58,5.16,5.16,0,0,0-2.18,1.12.39.39,0,0,0-.49.31A39.29,39.29,0,0,0,62.75,34c-2,1.52-4,3.06-5.87,4.69A63.55,63.55,0,0,0,44.51,52.72a62.81,62.81,0,0,0-9.95,36.71,6.64,6.64,0,0,0,.29,2.62,29.94,29.94,0,0,0,.49,4.81A61.94,61.94,0,0,0,42.72,118a69.62,69.62,0,0,0,15.2,18.53A67.47,67.47,0,0,0,82.11,149.9a53.9,53.9,0,0,0,6.41,1.68c2.9.53,5.81.9,8.74,1.23a61,61,0,0,0,10.81.17l.21.07.2-.09a5.82,5.82,0,0,0,2.68-.29,9.49,9.49,0,0,0,2.66-.12,1,1,0,0,0,.86-.07l2.68-.39h.72l.76.41a102.87,102.87,0,0,1-16.32,4.63,1.37,1.37,0,0,0-1.18,1.09q-1.34,4-2.75,7.92c-.82,2.29-1.68,4.56-2.5,6.84a.92.92,0,0,1-1,.66l-15-.15a1.07,1.07,0,0,1-1.15-.81c-.76-2.38-1.53-4.76-2.28-7.14s-1.44-4.64-2.11-7a1.53,1.53,0,0,0-1.15-1.16c-3.13-1.09-6.34-1.93-9.36-3.32a1,1,0,0,0-1.18.23c-1.85,1.58-3.72,3.14-5.57,4.72-2,1.71-4,3.44-6,5.16-.64.54-.67.53-1.54.08-3.32-1.76-6.48-3.8-9.69-5.74l-2.81-1.74c-1-.6-1.05-.71-.82-1.77.61-2.72,1.26-5.44,1.86-8.17a15.89,15.89,0,0,0,.71-3.67l0,0c.26-.82.53-1.64.76-2.47.14-.51-.23-.77-.63-1a13.81,13.81,0,0,0-2.69-2.87,18.89,18.89,0,0,0-3-3.34c-.17-.24-.35-.46-.5-.71a2,2,0,0,0-2.63-.86,4.56,4.56,0,0,0-.58.3,4.9,4.9,0,0,0-2.67.42,8,8,0,0,0-1.1,0c-3.18.54-6.36,1.11-9.54,1.66a2.51,2.51,0,0,1-1.71,0,1.93,1.93,0,0,0-.66-1.26.34.34,0,0,0-.28-.4h0c-.47-.91-.9-1.84-1.4-2.73-1.71-3-3.44-6-5.22-9.07.63-.71,1.23-1.45,1.89-2.13,3.12-3.22,6.24-6.44,9.4-9.61a1.68,1.68,0,0,0,.56-1.75c-.6-2.65-1.21-5.3-1.73-8A1.77,1.77,0,0,0,15.85,98c-2.71-.92-5.4-1.91-8.1-2.85C5.61,94.41,3.46,93.69,1.31,93L0,92.45c0-.88.1-1.77.1-2.65C.09,86.12,0,82.43,0,78.74c0-2.38-.1-2.09,2-2.68q7.22-2.06,14.47-4A1.7,1.7,0,0,0,18,70.45a51.21,51.21,0,0,1,1.68-6.86c.56-2.09.58-2.08-.94-3.62a3.45,3.45,0,0,0-.53-.39h0a1.39,1.39,0,0,0-.85-.86c-2-2.16-4-4.25-6.14-6.22a6.81,6.81,0,0,0-2.33-2.32c-.22-.31-.4-.6-.16-1,.43-.68.82-1.4,1.25-2.08q3.32-5.37,6.65-10.71c.44-.71.46-.7,1.46-.5L32,38.77l1.3.25a1.13,1.13,0,0,0,1-.32l1.12-1.07c1.92-1.84,3.83-3.69,5.77-5.5a1.78,1.78,0,0,0,.66-1.9c-.82-4.05-1.52-8.12-2.26-12.18-.06-.36-.12-.72-.19-1.09a1,1,0,0,1,.52-1.29c.39-.2.72-.52,1.1-.74l11.1-6.42a.79.79,0,0,1,1,.07c.57.46,1.17.88,1.73,1.36,3.35,2.89,6.71,5.78,10,8.7A1.27,1.27,0,0,0,66.4,19a67.2,67.2,0,0,1,8.86-2.74,1.33,1.33,0,0,0,1.09-.95c.39-1.19.79-2.37,1.18-3.56,1.16-3.49,2.31-7,3.48-10.48.33-1,.36-1,1.4-1L90.6.19c.66,0,1.32-.08,2-.13a5.62,5.62,0,0,0,2.61,0A1.61,1.61,0,0,0,96.55,0Z"/><path class="cls-2" d="M622.93,49.89c.23-1.46.23-1.49,1.23-1.49q6.87,0,13.73,0c.91,0,1.08.22,1.09,1.39,0,3.06,0,6.12,0,9.18q0,29.19,0,58.36c0,2.23,0,2.24,1.9,2.26l12.62,0a8.71,8.71,0,0,1,1.53.14c.16,0,.3.32.38.53a1,1,0,0,1,0,.48c-.55,3.34-1.08,6.68-1.68,10-.25,1.38-.64,2.72-1,4.08a1.06,1.06,0,0,1-1.13.93H624.13c-1.12,0-1.25-.11-1.26-1.45,0-3.64-.07-7.29-.06-10.93q0-27.44,0-54.88c0-3.39.07-6.79.1-10.18,0-.82-.06-1.65-.08-2.47A28.36,28.36,0,0,0,622.93,49.89Z"/><path class="cls-2" d="M118.84,152.5l-.76-.41a2.17,2.17,0,0,1-.07-.24l1.74-.13c.5,0,1-.36,1.5-.2A7.51,7.51,0,0,1,118.84,152.5Z"/><path class="cls-2" d="M688.41,92q0-14.28,0-28.55,0-6.94,0-13.9c0-1,.17-1.17,1-1.18,1,0,2.07,0,3.1,0,8.19,0,16.38,0,24.57,0a18.92,18.92,0,0,1,4.38.57c3.42.83,6.11,4.11,6.61,8.09a36.84,36.84,0,0,1,.3,4.7q0,29.66,0,59.33c0,1.57-.1,3.14-.24,4.7-.46,5.57-3.34,8.36-7.67,9.57a15.41,15.41,0,0,1-4.17.44q-11.3,0-22.58-.06l-4.2,0c-1,0-1.14-.15-1.16-1.29,0-1.65,0-3.31,0-5V92Zm15.49.34h-.08v25.8c0,.33,0,.67,0,1a.87.87,0,0,0,.77,1,3.72,3.72,0,0,0,.66.08c2,0,4,0,6,0,1.29,0,1.41-.18,1.46-1.55,0-.91,0-1.82,0-2.73V73.27c0-2.48,0-5,0-7.45,0-1.45-.15-1.59-1.37-1.61-1.63,0-3.25,0-4.87,0-2.45,0-2.56-.3-2.56,2.83Z"/><path class="cls-2" d="M659.34,100.16v-31c0-1.16,0-2.32,0-3.48a.84.84,0,0,0-.82-.94c-.88,0-1.77-.1-2.65-.11l-6.2,0a5.77,5.77,0,0,1-1.09-.12.5.5,0,0,1-.37-.53,3.72,3.72,0,0,1,.16-.72q1.56-6.86,3.14-13.7c.24-1.08.31-1.15,1.37-1.15q14.28,0,28.55.06c1,0,1,0,1.26,1.26.55,3.08,1.06,6.17,1.58,9.25.26,1.55.51,3.09.76,4.64.1.63-.07.92-.65,1a13.24,13.24,0,0,1-1.54.08c-1.63,0-3.25,0-4.87,0-2.88-.08-2.9-.09-2.91,3.26q0,18.75,0,37.49v25.57c0,1.16,0,2.32,0,3.48s-.12,1.38-1.32,1.39l-13.5,0a.78.78,0,0,1-.87-.84c0-.66,0-1.32,0-2q0-14.15,0-28.3v-4.47Z"/><path class="cls-2" d="M414.65,57.83c0,.82-.09,1.65-.09,2.47q0,31.67.05,63.32c0,3.23,0,6.45,0,9.68,0,.58,0,1.16,0,1.74s-.24.76-.68.79c-.22,0-.44,0-.66,0H401.06c-1,0-1.16-.13-1.17-1.25-.05-3.47-.07-7-.1-10.42,0-4.89-.13-9.77-.13-14.65,0-4.63.1-9.27.15-13.9,0-.22,0-.44-.08-.94a10.81,10.81,0,0,0-1.19,3.1c-.85,2.9-1.68,5.82-2.53,8.73-1.64,5.66-3.27,11.32-5,17-.51,1.72-1.18,3.38-1.8,5.1-.6-.12-.63-.67-.76-1.06-3-9.34-5.57-18.82-8.22-28.29-.27-.94-.48-1.91-.7-2.87a2.66,2.66,0,0,0-.65-1.34,2.7,2.7,0,0,0-.26,1.7q0,13-.06,26.07c0,3.56-.05,7.12-.09,10.68a14.69,14.69,0,0,1-.09,1.48c-.05.55-.27.93-.83.92a1.61,1.61,0,0,0-.22,0H365l-.67,0a.72.72,0,0,1-.68-.78c0-.58,0-1.16,0-1.74q-.06-24.21-.11-48.42c0-9.93,0-19.86,0-29.79,0-.91-.05-1.82-.08-2.73,0-.24.05-.47.08-.71.13-1-.35-2.22.35-3s1.66-.11,2.48-.38c3.82.2,7.64.15,11.47,0l2.19.14c.25,1.12.46,2.26.73,3.37.7,2.79,1.46,5.55,2.14,8.34,1.46,6,2.88,12,4.31,18,.6,2.55,1.2,5.09,1.82,7.7a1.72,1.72,0,0,0,.64-1.12c.45-2,.86-4,1.31-6,.88-3.84,1.8-7.67,2.67-11.51a73.49,73.49,0,0,0,1.63-7.2h0a1.16,1.16,0,0,0,.29-1.1A63.3,63.3,0,0,0,397.75,49l.27-.58.58-.17a30.18,30.18,0,0,0,5,.15c3.13,0,6.27,0,9.41,0,.56,0,1.19-.19,1.58.5A86,86,0,0,0,414.65,57.83Z"/><path class="cls-2" d="M265.29,61.56l8.18,0c.37,0,.74-.06,1.1-.05.73,0,1,.26.9,1-.15,1.48-.31,3-.53,4.43-.89,6-1.83,11.89-2.71,17.84-.73,4.89-1.4,9.79-2.13,14.68-.45,3.1-1,6.18-1.44,9.28-.86,5.71-1.68,11.42-2.52,17.13-.43,2.94-.86,5.87-1.33,8.8-.15,1-.3,1.1-1.17,1.1q-5.2,0-10.4,0c-1,0-1.05-.13-1.23-1.31-1.32-8.71-2.62-17.43-4-26.14a60.38,60.38,0,0,1-1-8.79c-.64,0-.7.39-.76.79q-1.11,7.47-2.2,14.93-.87,5.88-1.73,11.75-.45,3.06-.89,6.12c-.07.49-.12,1-.22,1.46-.24,1.1-.37,1.23-1.33,1.23-3.4,0-6.79,0-10.18,0-.89,0-1-.11-1.17-1.11q-1.34-8.81-2.65-17.6-2.38-16.29-4.74-32.57c-.95-6.52-1.86-13.06-2.79-19.59-.06-.4-.16-.8-.25-1.2-.06-.64-.13-1.29-.19-1.94a1.63,1.63,0,0,1,1.25-.35h11.06c1.27,0,1.31,0,1.5,1.5.42,3.36.85,6.72,1.18,10.09.75,7.64,1.45,15.29,2.17,22.94.21,2.3.44,4.59.67,7a4.43,4.43,0,0,0,.68-2.18q1.77-13.25,3.53-26.49c.48-3.6.9-7.21,1.34-10.82.06-.4.1-.82.18-1.22a.81.81,0,0,1,.79-.72c2.8,0,5.61.07,8.41.13.49,0,.81.27.9.87.27,2,.56,3.92.83,5.88.88,6.2,1.77,12.4,2.62,18.61.72,5.29,1.38,10.6,2.08,15.91.66-.27.53-.93.58-1.47.28-3,.52-5.93.81-8.89.34-3.45.72-6.89,1.09-10.34.55-5.09,1.12-10.18,1.67-15.27.18-1.73.34-3.45.52-5.18C262.92,61.47,264.12,61.81,265.29,61.56Z"/><path class="cls-2" d="M561.16,61.59a12.92,12.92,0,0,1,3.35,1.2,8.75,8.75,0,0,1,4.7,7,23,23,0,0,1,.24,3.21q0,13.78,0,27.56c0,1.49-.13,3-.21,4.46a7.25,7.25,0,0,1-4.86,6.93c-.35.14-.71.22-1,.36a.51.51,0,0,0-.29.59c.13.56.3,1.11.48,1.65,1.52,4.57,3.07,9.13,4.55,13.72.76,2.33,1.39,4.71,2.09,7.06-.54.61-1.23.44-1.86.44-2.7,0-5.39,0-8.09,0-.87,0-1.74.08-2.61.13a.35.35,0,0,0-.42,0,1.16,1.16,0,0,1-1.06-.89,9.66,9.66,0,0,0-.49-1.26q-3.25-9.87-6.51-19.75a5.53,5.53,0,0,0-.47-1.12c-.29-.47-.76-.42-1.2-.36s-.6.44-.63.87,0,1,0,1.48q.08,9.44.14,18.85c0,.42,0,.83,0,1.24a.8.8,0,0,1-.7.8,3.65,3.65,0,0,1-.66,0l-10.84-.06c-1.37,0-1.44-.12-1.48-1.73,0-.33,0-.67,0-1q0-33.6,0-67.22a17.2,17.2,0,0,1,.06-4.18,83.38,83.38,0,0,0,9.87-.18.5.5,0,0,0,.66,0,20.25,20.25,0,0,0,6,0,1.24,1.24,0,0,0,1.31,0,48.1,48.1,0,0,0,8.14,0c.15.16.3.2.47,0A2.27,2.27,0,0,0,561.16,61.59ZM546.84,87.38h.08V97.3c0,.49,0,1,0,1.48.05,1,.25,1.25,1.24,1.28,1.33,0,2.65,0,4,0,3.29,0,3.36-.08,3.37-3.69q0-9.3,0-18.6c0-.66,0-1.33,0-2,0-.92-.26-1.19-1.07-1.21-2.14,0-4.28-.06-6.41,0-.84,0-1.07.28-1.14,1.14,0,.58,0,1.16,0,1.74Z"/><path class="cls-2" d="M522.57,62c.58.36,1.14.73,1.73,1.07,2.52,1.47,3.75,3.91,4.1,6.94a41.16,41.16,0,0,1,.24,4.71c0,8,0,16.06-.07,24.09q0,11.79-.09,23.59a33.08,33.08,0,0,1-.36,5.44,8.49,8.49,0,0,1-6.63,7.38,17,17,0,0,1-4.38.61c-4.87,0-9.75,0-14.62,0a11.3,11.3,0,0,1-5.37-1.23,8.08,8.08,0,0,1-3.64-4.17,13.4,13.4,0,0,1-1-5.28c0-10.68,0-21.36,0-32,0-7.12.06-14.24,0-21.36a11.37,11.37,0,0,1,1.59-5.84,12.52,12.52,0,0,1,2.84-3.09,16.1,16.1,0,0,1,7.71-1.47c4.1.07,8.2,0,12.3,0A23.62,23.62,0,0,1,522.57,62ZM514.66,98.6h0V79c0-1.08,0-2.15-.07-3.23,0-.76-.28-1-1-1-1.48,0-2.95,0-4.43,0-3.27,0-3-.28-3,3.36q0,20.58,0,41.17c0,.58,0,1.16,0,1.74.06,1,.3,1.36,1.2,1.4,1.47.06,2.94,0,4.42,0,3.07,0,2.77-.24,2.78-3.21C514.68,112.32,514.66,105.46,514.66,98.6Z"/><path class="cls-2" d="M446.86,61.39c.44.37,1,.32,1.48.47A9.17,9.17,0,0,1,455,70.41c.06,1.32.19,2.64.19,4q0,23.84-.05,47.67a28.55,28.55,0,0,1-.59,6.64,8.34,8.34,0,0,1-5.8,6.5,13.7,13.7,0,0,1-4.15.67c-5.24,0-10.48,0-15.72-.07a12.27,12.27,0,0,1-2.4-.33c-4.3-.94-6.64-4.11-7.09-9.16-.16-1.89-.12-3.8-.13-5.7,0-7.7-.09-15.39-.1-23.09,0-8.44,0-16.88.07-25.32a13.65,13.65,0,0,1,.44-3.92,9.33,9.33,0,0,1,6.09-6.32c.55-.21,1.18-.13,1.67-.57l2.63-.11c3.13,0,6.26.09,9.4.1,2,0,4.08-.06,6.12-.09ZM433.2,75a16.05,16.05,0,0,0-.28,3.63q0,9,0,18.09,0,11.16,0,22.31a14.22,14.22,0,0,0,.09,1.73c.15,1.33.36,1.57,1.52,1.6,1.76,0,3.53,0,5.3,0a3.15,3.15,0,0,0,.44,0c.68-.1.93-.34,1-1.06s.06-1.16.06-1.74c0-5.78.07-11.56.09-17.35q0-11.52.08-23c0-1.08,0-2.15-.05-3.23-.05-.92-.27-1.21-1.07-1.21-2.21,0-4.42,0-6.62.06C433.55,74.8,433.42,74.92,433.2,75Z"/><path class="cls-1" d="M72.27,32.26c.25.18.6.23.77,0a8.66,8.66,0,0,1,2.68-1.84c2.11-.85,4.23-1.69,6.33-2.55a81.68,81.68,0,0,1,17-4.81,83.41,83.41,0,0,1,21.17-1,39.13,39.13,0,0,1,6.55,1,.88.88,0,0,0,1.11-.45q.94-1.62,1.86-3.27l3-5.44c.23-.42.47-.73,1-.44l8.83,4.6c.31.16.29.48.34.76-1.95,2.71-3.35,5.75-5.16,8.5a3,3,0,0,0,1.7,1.1c1.18,1,2.73,1.41,4.06,2.43l4.93-4.72c.31-.3.6-.64.91-1,2.12-2.1,1.5-2.07,3.68-.11,1.64,1.49,3.32,2.92,5,4.39.43.39,1,.72,1,1.39l-6.39,6.65a.62.62,0,0,0,.06,1c.31.32.6.65.9,1,2.1,2.17,1.56,2.15,4.61.84a35.79,35.79,0,0,0,5.11-1.65,2.18,2.18,0,0,1,.67,2l-5.35,3.78a1.82,1.82,0,0,0-.31.31.46.46,0,0,0,.22.69,31,31,0,0,0,6.7,1,5.7,5.7,0,0,0,1,.33c3.65.47,7.3.94,11,1.38,3.36.41,6.72.81,10.09,1.17s6.88.71,10.33,1q9.9.87,19.81,1.69c2.35.2,4.7.37,7.05.55a3.77,3.77,0,0,1,1.27.25,12.08,12.08,0,0,1-3.11.18l-11.93-.26c-9.43-.21-18.86-.38-28.29-.64-3.75-.1-7.5-.38-11.25-.57-.66,0-1.32,0-2,0-4.42-.41-8.83-1-13.27-1.15h0c-.11-.17-.24-.22-.39-.05a22.81,22.81,0,0,0-4.34-.69c-2.93-.37-5.86-.66-8.79-1a1.56,1.56,0,0,1-1.08-.66,54.71,54.71,0,0,0-9-8.12A58.59,58.59,0,0,0,106.4,29.23a71.54,71.54,0,0,0-9.68-.81,60.81,60.81,0,0,0-9,.57,102.41,102.41,0,0,0-12.15,2.3,3.77,3.77,0,0,1-2.57.22c-.37-.15-.85.2-.72.81Z"/><path class="cls-2" d="M487.13,62.39c.11.56.21,1.13.35,1.68.91,3.83,1.82,7.65,2.73,11.43a2.61,2.61,0,0,1-1.84.32c-2.06,0-4.13,0-6.19.06-.95,0-1.18.27-1.18,1.35,0,3.64,0,7.28,0,10.92q0,22.6,0,45.19c0,2.56.08,2.5-2.12,2.46-3.25-.05-6.49,0-9.74,0-.44,0-.88,0-1.33,0a.64.64,0,0,1-.59-.61,10.13,10.13,0,0,1-.06-1.23C467.12,124,467,114,467,104.1c0-8.36.08-16.72.13-25.08V78c0-2.13,0-2.16-2-2.19s-4.13,0-6.2,0c-1,0-1.15-.27-.92-1.37.62-2.89,1.28-5.77,1.89-8.67.28-1.37.48-2.76.71-4.14l1.43-.2.14.1.15-.1a6.84,6.84,0,0,0,3.15,0,72.53,72.53,0,0,0,10.63,0,65.59,65.59,0,0,0,7,.23c1.24,0,2.48.1,3.73.15,0,.25.08.48.32.58Z"/><path class="cls-2" d="M76.16,48.4c4.35,0,8.7.05,13,.06,2.6,0,2.27-.35,3.05,2.37C94,57,95.44,63.21,97,69.42c1.09,4.37,2.17,8.75,3.3,13.12a2.89,2.89,0,0,0,.57,1.54c.3,0,.41-.2.46-.44q3-12.57,6-25.13c.68-2.87,1.29-5.77,2-8.64.3-1.29.38-1.36,1.46-1.38,1.92,0,3.84,0,5.76,0,2.72,0,5.45,0,8.18,0,1.25,0,1.34.12,1.34,1.59,0,8.44.08,16.88.07,25.32q0,29,0,58.06a4.73,4.73,0,0,1-.32,2.42l-14.47,0c0-.74-.13-1.48-.13-2.22V97.89a4.23,4.23,0,0,0-.22-2.06,3.32,3.32,0,0,0-.69,1.52c-2,7.33-4.1,14.63-6.36,21.88-.63,2-1.15,4.08-1.72,6.13a1.56,1.56,0,0,0-.4,1.24,1.58,1.58,0,0,0-.43,1.28l0-.06c-.27.06-.56.35-.78,0a6.19,6.19,0,0,1-.45-1.13c-.67-2.27-1.31-4.55-2-6.82-1.13-3.84-2.29-7.67-3.41-11.51S92.59,100.78,91.5,97A5.18,5.18,0,0,0,91,95.94s-.31,0-.34.08a1.43,1.43,0,0,0-.16.69c.24,3.14.09,6.28.1,9.42q0,12.89,0,25.77c0,1.07-.12,2.14-.21,3.21-.06.63-.54.7-1,.82-2.32,0-4.65-.11-7-.13s-4.51,0-6.76,0a6.71,6.71,0,0,1-.34-2.4c0-1.72,0-3.43,0-5.15q0-3.42-.08-6.85a14.66,14.66,0,0,0,0-4v-1c.19-3.65.16-7.29,0-10.93q.28-10.94,0-21.87c0-.4.1-.81.1-1.21q0-8.35,0-16.69c0-.33-.06-.65-.09-1a84.57,84.57,0,0,0,0-10.44,28.87,28.87,0,0,0,.06-4.65A1.26,1.26,0,0,1,76.16,48.4Z"/><path class="cls-2" d="M575.74,128.88a1.94,1.94,0,0,0-.33-1.45l-.12-1c.14-1.36-.41-2.59-.6-3.89a.67.67,0,0,1,.58-.85,16.47,16.47,0,0,1,2-.09c4.42,0,8.84,0,13.26,0,2.76,0,2.78,0,2.79-3.19,0-3.47,0-6.94,0-10.41,0-.75,0-1.49-.1-2.23s-.31-1-1-1.08-1.17-.06-1.76-.07l-8.18-.06a14.89,14.89,0,0,1-1.77-.06c-4.25-.56-6.4-3-6.86-7.58a20.62,20.62,0,0,1-.06-2.23V71.86a12.23,12.23,0,0,1,.26-3c.68-2.73,1.88-5,4.22-6.35a11.08,11.08,0,0,1,5.15-1.21q9.19,0,18.38.06c.3,0,.59,0,.89,0a1,1,0,0,1,1,.85c.33,1.1.69,2.19.93,3.31.53,2.58,1,5.18,1.47,7.77a8.13,8.13,0,0,1,.11,1.48.65.65,0,0,1-.53.69,9.7,9.7,0,0,1-1.32,0c-4.8,0-9.6,0-14.4,0-2,0-2,0-2,2.14,0,3.9,0,7.79,0,11.68,0,.33,0,.66,0,1s.29.75.71.77c.59,0,1.18,0,1.77.06,2.59,0,5.17,0,7.75,0a10.93,10.93,0,0,1,7.5,2.43,3.09,3.09,0,0,0,1,1.4,1.84,1.84,0,0,0,.47,1.07.89.89,0,0,0,.35.79c.06.9.12,1.8.19,2.7a.41.41,0,0,0,0,.44,10.6,10.6,0,0,0,.15,3.13,5.41,5.41,0,0,0,0,2.74,3.64,3.64,0,0,0-.13.72V126c0,.3,0,.6-.08.9s-.08.66-.11,1a1.14,1.14,0,0,0-.29,1l-.12.63-.11.1,0,.14-1.3,2.6a.7.7,0,0,0-.44.55.37.37,0,0,0-.32.3,4.7,4.7,0,0,0-1.56,1.11l-2.54,1.1-.42.08c-3.4.53-6.82.23-10.23.48a4.68,4.68,0,0,0-2.17,0l-8.31-.15-2.18,0c-.39-1.55-.74-3-1.09-4.38a2.47,2.47,0,0,0-.33-1.73C575.8,129.39,575.77,129.13,575.74,128.88Z"/><path class="cls-2" d="M151.93,135.61a1.94,1.94,0,0,1-1.37.25c-4,0-8-.06-12-.09-.29,0-.59,0-.88,0-.64,0-.87-.33-.91-1.12,0-.49,0-1,0-1.49l0-82.19c0-2.71-.2-2.51,2.29-2.51,8.63,0,17.26,0,25.9,0a17.64,17.64,0,0,1,4,.41,8.93,8.93,0,0,1,6.55,5.69,9.63,9.63,0,0,1,.66,3.61c0,3,.12,6,.12,8.94q0,15.27,0,30.54c0,1.66,0,3.31-.09,5-.31,6.63-4.75,9.57-9.07,9.82-2.28.13-4.57,0-6.86,0-1.92,0-3.84,0-5.76,0-2.19,0-2.27-.12-2.28,2.36,0,1.49-.05,3-.06,4.47,0,4.22,0,8.44,0,12.66A17.16,17.16,0,0,1,151.93,135.61ZM152.3,81h-.08V95.08c0,.41,0,.83,0,1.24.05.92.26,1.18,1.07,1.19,1.91,0,3.83,0,5.74,0,2.13,0,2.25-.14,2.25-2.55,0-9.58,0-19.17,0-28.75,0-.41,0-.82-.06-1.23a.76.76,0,0,0-.72-.78c-2.43,0-4.86,0-7.29-.06a.8.8,0,0,0-.21,0,.77.77,0,0,0-.58.65c0,.58-.08,1.15-.08,1.73Q152.3,73.77,152.3,81Z"/><path class="cls-2" d="M311.41,98.57q0-17.25,0-34.5c0-3.15-.08-2.65,2.37-2.65l20.8,0a31.22,31.22,0,0,1,4.63.3,9.36,9.36,0,0,1,2.95,1,7.81,7.81,0,0,1,4.33,6.41,30.69,30.69,0,0,1,.25,3.71q0,14.9-.05,29.79a21,21,0,0,1-.25,3,8,8,0,0,1-4.22,6.25c-1.76.93-1.77,1-1.11,3q3,9.23,5.94,18.42c.13.39.26.78.38,1.17.39,1.26.27,1.48-.86,1.48l-11.95,0a1.07,1.07,0,0,1-1.13-.91q-1.94-6.34-3.93-12.65c-.94-3-1.93-5.9-2.9-8.85a3.84,3.84,0,0,0-.43-.86.68.68,0,0,0-.77-.31.55.55,0,0,0-.38.54,12.22,12.22,0,0,0-.07,1.48q0,9.57-.07,19.12c0,.25,0,.5,0,.74,0,1.56-.12,1.66-1.54,1.66-3.61,0-7.23,0-10.84,0-1,0-1.17-.15-1.2-1.26,0-1.41,0-2.81,0-4.22q0-15.88,0-31.78ZM325,87.49h0V88c0,3.55-.09,7.11-.13,10.67,0,.91.23,1.24,1,1.24a36.46,36.46,0,0,0,5.53-.15c1.52-.23,1.89-.66,2-2.35,0-.33,0-.66,0-1q0-9.18,0-18.37a18.52,18.52,0,0,0-.12-2.23c-.08-.61-.41-1.1-1-1.12q-3.21-.07-6.41-.07c-.51,0-.8.38-.84,1s0,1,0,1.48Z"/><path class="cls-2" d="M194,61.22c3.24,0,6.49.08,9.73.1a22.7,22.7,0,0,1,5.07.41,9.23,9.23,0,0,1,7.37,9.15c0,.91.05,1.82.05,2.73,0,3.22,0,6.45,0,9.68q0,18.49-.08,37a43.77,43.77,0,0,1-.37,7.67c-.72,3.88-3.11,6.63-6.6,7.42a17.58,17.58,0,0,1-3.95.49c-4.58,0-9.15,0-13.73-.09a21.08,21.08,0,0,1-4-.46c-4.28-.93-7.17-4.4-7.23-9.54-.09-7.2-.08-14.4-.09-21.6q0-14.78,0-29.55c0-.91,0-1.82,0-2.73a9.91,9.91,0,0,1,7.85-10.13,2.94,2.94,0,0,0,1.49-.39Zm8.45,36.86h0V80c0-1.16,0-2.32,0-3.47,0-1.38-.24-1.65-1.4-1.68-1.77,0-3.54,0-5.31,0-1.17,0-1.35.26-1.44,1.64,0,.41,0,.83,0,1.24l-.09,41.47a10.55,10.55,0,0,0,.08,1.49c.15,1,.53,1.45,1.46,1.54,1.1.11,2.21.12,3.31.13a16.27,16.27,0,0,0,2.21-.09c.71-.09,1.05-.46,1.15-1.27s.11-1.65.12-2.48Z"/><path class="cls-2" d="M295,61.34a37.52,37.52,0,0,0,5.3.19c1.47.06,2.94.11,4.42.15a1.17,1.17,0,0,1,1.16.94c.16.55.36,1.09.48,1.65.68,3.3,1.33,6.61,2,9.91.2,1-.13,1.32-1,1.36s-1.77,0-2.66,0l-10.18-.05a6.46,6.46,0,0,0-.88,0,.79.79,0,0,0-.74.76c0,.41,0,.83,0,1.24q0,6.59,0,13.16a10.16,10.16,0,0,0,.08,1.23.66.66,0,0,0,.57.65,11.28,11.28,0,0,0,1.54.11c2.36,0,4.72,0,7.08,0,.59,0,1.18,0,1.77,0a.76.76,0,0,1,.74.76,4.53,4.53,0,0,1,0,.74c-.09,3.39-.18,6.78-.3,10.17,0,1.11-.2,1.29-1.19,1.3-2.36,0-4.72,0-7.08,0-.67,0-1.33,0-2,0-1,0-1.24.26-1.25,1.52q0,6.45,0,12.91c0,1.2.17,1.38,1.34,1.39,3.69,0,7.37,0,11.06,0,.59,0,1.18,0,1.77,0s1,.38.86,1c-1,3.83-1.19,7.82-2.08,11.67-.08.32-.12.64-.2,1a.86.86,0,0,1-.81.71c-.22,0-.44,0-.66,0l-23.24-.09-1.1,0A.73.73,0,0,1,279,135c-.08-1.24-.19-2.47-.19-3.71q0-26.31,0-52.63c0-5-.05-9.93-.06-14.89,0-2.22,0-2.25,1.93-2.27,3.17,0,6.34,0,9.51,0,.74,0,1.47-.1,2.2-.15A6.67,6.67,0,0,0,295,61.34Z"/><path class="cls-1" d="M72.24,32.32c0-.19-.17-.25-.31-.12a.17.17,0,0,0,.1.3c.17,0,.26-.06.24-.24Z"/></g></g></svg>