<svg xmlns="http://www.w3.org/2000/svg" viewBox="0 0 202.15 173.64"><defs><style>.cls-1{fill:#f39b51;}</style></defs><title>Asset 3M Favicon</title><g id="Layer_2" data-name="Layer 2"><g id="Layer_1-2" data-name="Layer 1"><polygon class="cls-1" points="18.23 59.59 18.23 59.59 18.23 59.58 18.23 59.59"/><path class="cls-1" d="M44.51,52.72A63.55,63.55,0,0,1,56.88,38.66c1.9-1.63,3.88-3.17,5.87-4.69a39.29,39.29,0,0,1,7.6-4.43.39.39,0,0,1,.49-.31A5.16,5.16,0,0,1,73,28.11a7.35,7.35,0,0,1,.91-.58,96.35,96.35,0,0,1,21.51-7.21,63.56,63.56,0,0,1,26.17-.21c.83-3.28,1.67-6.53,2.26-10-3.44-.88-6.85-1.62-10.31-2.25-.25.77-.46,1.39-.66,2-.6,1.82-1.19,3.63-1.82,5.44-.28.82-.52,1-1.29.82a49,49,0,0,0-5.92-.69,1.48,1.48,0,0,1-1.45-1.09c-.76-2.23-1.54-4.45-2.31-6.68S98.54,3.27,97.81,1a1.44,1.44,0,0,0-1.26-1,1.61,1.61,0,0,1-1.37.09,5.57,5.57,0,0,1-2.6,0c-.66.05-1.32.12-2,.13l-8.19.1c-1,0-1.07,0-1.4,1-1.17,3.49-2.32,7-3.48,10.48-.39,1.19-.79,2.37-1.18,3.56a1.33,1.33,0,0,1-1.09.95A67.2,67.2,0,0,0,66.4,19a1.27,1.27,0,0,1-1.53-.35c-3.32-2.92-6.68-5.81-10-8.7-.56-.48-1.16-.9-1.73-1.36a.79.79,0,0,0-1-.07L41,14.93c-.38.22-.71.54-1.1.74A1,1,0,0,0,39.39,17c.07.37.13.73.19,1.09.74,4.06,1.44,8.13,2.26,12.18a1.78,1.78,0,0,1-.66,1.9c-1.94,1.81-3.85,3.66-5.77,5.5L34.29,38.7a1.13,1.13,0,0,1-1,.32L32,38.77,18.12,35.91c-1-.2-1-.21-1.46.5Q13.33,41.75,10,47.12c-.43.68-.82,1.4-1.25,2.08-.24.39-.06.68.16,1a6.81,6.81,0,0,1,2.33,2.32c2.16,2,4.19,4.06,6.14,6.22a1.36,1.36,0,0,1,.84.85,5,5,0,0,1,.52.39c1.52,1.54,1.5,1.53.94,3.62A51.21,51.21,0,0,0,18,70.45a1.7,1.7,0,0,1-1.48,1.62Q9.27,74,2.06,76.06c-2.12.59-2,.3-2,2.68,0,3.69,0,7.38.06,11.06,0,.88-.06,1.77-.1,2.65L1.31,93c2.15.73,4.3,1.45,6.44,2.19,2.7.94,5.39,1.93,8.1,2.85a1.77,1.77,0,0,1,1.34,1.51c.52,2.67,1.13,5.32,1.73,8a1.68,1.68,0,0,1-.56,1.75c-3.16,3.17-6.28,6.39-9.4,9.61-.66.68-1.26,1.42-1.89,2.13,1.78,3.08,3.51,6.07,5.22,9.07.5.89.93,1.82,1.4,2.73h0a.34.34,0,0,1,.28.4,1.93,1.93,0,0,1,.66,1.26,2.51,2.51,0,0,0,1.71,0c3.18-.55,6.36-1.12,9.54-1.66a8,8,0,0,1,1.1,0,4.9,4.9,0,0,1,2.67-.42,4.56,4.56,0,0,1,.58-.3,2,2,0,0,1,2.63.86c.15.25.33.47.5.71a18.89,18.89,0,0,1,3,3.34,13.81,13.81,0,0,1,2.69,2.87c.4.21.77.47.63,1-.23.83-.5,1.65-.76,2.47l0,0a15.89,15.89,0,0,1-.71,3.67c-.6,2.73-1.25,5.45-1.86,8.17-.23,1.06-.16,1.17.82,1.77L40,158.54c3.21,1.94,6.37,4,9.69,5.74.87.45.9.46,1.54-.08,2-1.72,4-3.45,6-5.16,1.85-1.58,3.72-3.14,5.57-4.72a1,1,0,0,1,1.18-.23c3,1.39,6.23,2.23,9.36,3.32a1.53,1.53,0,0,1,1.15,1.16c.67,2.33,1.39,4.65,2.11,7s1.52,4.76,2.28,7.14a1.07,1.07,0,0,0,1.15.81l15,.15a.92.92,0,0,0,1-.66c.82-2.28,1.68-4.55,2.5-6.84q1.41-3.94,2.75-7.92a1.37,1.37,0,0,1,1.18-1.09,102.87,102.87,0,0,0,16.32-4.63,7.51,7.51,0,0,0,2.41-1c-.54-.16-1,.18-1.5.2l-1.74.13a2.17,2.17,0,0,0,.07.24h-.72l-2.68.39a1,1,0,0,1-.86.07,9.49,9.49,0,0,1-2.66.12,5.82,5.82,0,0,1-2.68.29l-.2.09-.21-.07a61,61,0,0,1-10.81-.17c-2.93-.33-5.84-.7-8.74-1.23a53.9,53.9,0,0,1-6.41-1.68,67.47,67.47,0,0,1-24.19-13.36A69.62,69.62,0,0,1,42.72,118a61.94,61.94,0,0,1-7.38-21.15,29.94,29.94,0,0,1-.49-4.81,6.64,6.64,0,0,1-.29-2.62,62.81,62.81,0,0,1,9.95-36.71Z"/><path class="cls-1" d="M134.35,59c5.88,0,11.75.06,17.63.07,3.5,0,3.07-.45,4.11,3.11,2.37,8,4.31,16.21,6.4,24.34,1.47,5.73,2.94,11.47,4.45,17.19a3.69,3.69,0,0,0,.78,2c.4,0,.54-.26.62-.57q4.08-16.45,8.14-32.92c.92-3.76,1.75-7.55,2.67-11.31.4-1.69.5-1.78,2-1.81,2.59,0,5.18,0,7.77,0,3.69,0,7.38,0,11.06,0,1.69,0,1.81.16,1.82,2.09,0,11.05.1,22.1.09,33.15q0,38-.06,76.06a6,6,0,0,1-.43,3.16l-19.55-.05c-.06-1-.17-1.93-.17-2.9q0-23.37,0-46.72a5.49,5.49,0,0,0-.29-2.71,4.31,4.31,0,0,0-.93,2c-2.71,9.6-5.55,19.16-8.6,28.65-.85,2.65-1.55,5.35-2.32,8a2,2,0,0,0-.54,1.62,2.09,2.09,0,0,0-.58,1.68l0-.07c-.35.07-.76.46-1-.05a6.8,6.8,0,0,1-.61-1.47c-.91-3-1.78-6-2.69-8.94-1.53-5-3.11-10-4.62-15.08s-2.9-9.88-4.37-14.82a6.87,6.87,0,0,0-.66-1.4c0-.05-.42,0-.47.1a2,2,0,0,0-.21.91c.32,4.11.13,8.22.14,12.33q0,16.88,0,33.76c0,1.4-.17,2.8-.29,4.2-.07.83-.72.91-1.29,1.08-3.14-.06-6.28-.15-9.42-.17s-6.09,0-9.13,0a8.4,8.4,0,0,1-.46-3.15q0-3.36,0-6.74,0-4.49-.11-9a18.87,18.87,0,0,0,0-5.2v-1.31a142.3,142.3,0,0,0,0-14.31q.38-14.31,0-28.64c.05-.53.14-1.06.14-1.59q0-10.93,0-21.86c0-.42-.08-.85-.12-1.27a107.5,107.5,0,0,0,.06-13.67,36.31,36.31,0,0,0,.08-6.08A1.66,1.66,0,0,1,134.35,59Z"/><path class="cls-1" d="M202.15,50.57l-37-4.15c-.84,0-5.77-.8-6.69-1a.46.46,0,0,1-.23-.69,1.82,1.82,0,0,1,.31-.31l5.36-3.78a2.18,2.18,0,0,0-.68-2,35.39,35.39,0,0,1-5.11,1.65c-3.05,1.31-2.51,1.33-4.6-.84-.31-.32-.59-.65-.9-1a.61.61,0,0,1-.07-1l4.86-5.06L159,30.89c0-.67-.58-1-1-1.38-1.65-1.48-3.33-2.91-5-4.4-2.18-2-1.56-2-3.67.11-.32.31-.6.65-.92,1l-4.93,4.72c-1.32-1-2.87-1.41-4.06-2.43a3,3,0,0,1-1.7-1.1c1.81-2.75,3.22-5.79,5.16-8.5,0-.28,0-.6-.34-.76-2.94-1.53-5.89-3.06-8.82-4.6-.55-.29-.8,0-1,.44q-1.47,2.73-3,5.44c-.6,1.1-1.23,2.19-1.85,3.27a.89.89,0,0,1-1.11.45,39.25,39.25,0,0,0-6.56-1,83.43,83.43,0,0,0-21.17,1,81.6,81.6,0,0,0-17,4.81c-2.11.86-4.22,1.7-6.34,2.55a19,19,0,0,0-2.08,1.24,6.28,6.28,0,0,0,1.89-.37A100.46,100.46,0,0,1,87.68,29a60.89,60.89,0,0,1,9-.57,71.54,71.54,0,0,1,9.68.81,59.72,59.72,0,0,1,16.66,5.11,42.83,42.83,0,0,1,9.25,5.53A38.45,38.45,0,0,1,142,51.57h60.2Z"/></g></g></svg>